<svg height="512" viewBox="0 0 64 64" width="512" xmlns="http://www.w3.org/2000/svg" xmlns:xlink="http://www.w3.org/1999/xlink"><linearGradient id="New_Gradient_Swatch_1" gradientUnits="userSpaceOnUse" x1="32" x2="32" y1="-3.604" y2="66.371"><stop offset="0" stop-color="#fff33b"/><stop offset=".014" stop-color="#fee72e"/><stop offset=".042" stop-color="#fed51b"/><stop offset=".07" stop-color="#fdca10"/><stop offset=".1" stop-color="#fdc70c"/><stop offset=".4" stop-color="#f3903f"/><stop offset=".8" stop-color="#ed683c"/><stop offset="1" stop-color="#e93e3a"/></linearGradient><linearGradient id="New_Gradient_Swatch_1-4" x1="41" x2="41" xlink:href="#New_Gradient_Swatch_1" y1="-3.604" y2="66.371"/><g id="computer-printer-monitor-home-house"><g fill="url(#New_Gradient_Swatch_1)"><path d="m59.18 25.17a2.923 2.923 0 0 0 .83-.12 2.963 2.963 0 0 0 1.85-1.54l.21-.41a3.022 3.022 0 0 0 -1.14-3.91l-27.39-16.43a2.988 2.988 0 0 0 -3.08 0l-27.39 16.43a3.022 3.022 0 0 0 -1.14 3.91l.21.41a2.963 2.963 0 0 0 1.85 1.54 2.9 2.9 0 0 0 2.01-.14v31.09h-1a3 3 0 0 0 0 6h54a3 3 0 0 0 0-6h-1v-31.1a3.033 3.033 0 0 0 1.18.27zm-.18 32.83a1 1 0 0 1 0 2h-54a1 1 0 0 1 0-2zm-51-2v-32.24l23.48-14.14a1.02 1.02 0 0 1 1.04 0l23.48 14.14v32.24zm25.55-48.09a3.009 3.009 0 0 0 -3.1 0l-25.11 15.12a1.018 1.018 0 0 1 -.8.1.972.972 0 0 1 -.61-.51l-.21-.41a1.021 1.021 0 0 1 .38-1.31l27.38-16.42a.98.98 0 0 1 1.03-.01l27.39 16.43a1.021 1.021 0 0 1 .38 1.31l-.21.41a.972.972 0 0 1 -.61.51 1.023 1.023 0 0 1 -.8-.1z"/><path d="m53 26h-42a1 1 0 0 0 -1 1v26a1 1 0 0 0 1 1h42a1 1 0 0 0 1-1v-26a1 1 0 0 0 -1-1zm-26 26h-8v-1a1 1 0 0 1 1-1h6a1 1 0 0 1 1 1zm-5-6h2v2h-2zm-5-2a1 1 0 0 1 -1-1v-8a1 1 0 0 1 1-1h12a1 1 0 0 1 1 1v8a1 1 0 0 1 -1 1zm27 8h-6v-2h6zm4 0h-2v-3a1 1 0 0 0 -1-1h-8a1 1 0 0 0 -1 1v3h-2v-6h14zm-11-8v-5a1 1 0 0 1 1-1h6a1 1 0 0 1 1 1v5zm15 8h-2v-7a1 1 0 0 0 -1-1h-2v-5a3.009 3.009 0 0 0 -3-3h-6a3.009 3.009 0 0 0 -3 3v5h-2a1 1 0 0 0 -1 1v7h-3v-1a3.009 3.009 0 0 0 -3-3v-2h3a3.009 3.009 0 0 0 3-3v-8a3.009 3.009 0 0 0 -3-3h-12a3.009 3.009 0 0 0 -3 3v8a3.009 3.009 0 0 0 3 3h3v2a3.009 3.009 0 0 0 -3 3v1h-5v-24h40z"/><path d="m28 24h8a1 1 0 0 0 1-1v-8a1 1 0 0 0 -1-1h-8a1 1 0 0 0 -1 1v8a1 1 0 0 0 1 1zm1-4h2v2h-2zm4 2v-2h2v2zm2-4h-2v-2h2zm-4-2v2h-2v-2z"/></g><path d="m39 40h4v2h-4z" fill="url(#New_Gradient_Swatch_1-4)"/></g></svg>